#!OML:ASF G:\JayActor3\Patient Classification 1\Patient 1\Session 6\male.ASF
:FULLY-SPECIFIED
:DEGREES
616
root 33.067 14.6695 -11.6772 176.819 -49.2766 -177.747
lowerback 22.101 -1.08863 6.5608
upperback 11.9281 -1.9398 3.11701
thorax 0.736386 -1.51183 0.0196134
lowerneck 14.297 1.84293 7.34686
upperneck 4.49578 3.08157 -7.94469
head -0.801594 1.63961 -4.12723
rclavicle 3.33958e-014 -4.05521e-014
rhumerus -32.1484 11.9326 -86.7321
rradius 123.796
rwrist 16.5384
rhand 18.4663 -21.0904
rfingers 7.12502
rthumb 43.1037 -45.2996
lclavicle 3.33958e-014 -4.05521e-014
lhumerus -37.9495 -2.15433 86.2285
lradius 130.227
lwrist 6.54764
lhand 7.16582 37.5271
lfingers 7.12502
lthumb 32.4335 64.6452
rfemur -26.4564 -4.9663 27.5018
rtibia 63.4849
rfoot -36.9165 -21.9298
rtoes -4.79615
lfemur -68.3755 12.9868 -29.8283
ltibia 79.6993
lfoot -20.5013 9.38897
ltoes -15.0202
617
root 32.9854 14.6815 -11.7817 176.227 -49.5003 -177.406
lowerback 21.9197 -1.08758 6.61146
upperback 11.9001 -1.92889 3.1622
thorax 0.795833 -1.49944 0.0314734
lowerneck 14.3007 1.81502 7.32838
upperneck 4.64949 3.03968 -7.89521
head -0.754973 1.6138 -4.10121
rclavicle 9.54166e-015 -1.74931e-014
rhumerus -32.0872 11.7911 -86.7828
rradius 123.649
rwrist 16.4682
rhand 18.6869 -21.1363
rfingers 7.12502
rthumb 43.31 -45.2718
lclavicle 9.54166e-015 -1.74931e-014
lhumerus -38.0501 -2.19769 86.2643
lradius 130.235
lwrist 6.64436
lhand 7.24541 37.6307
lfingers 7.12502
lthumb 32.5093 64.7332
rfemur -25.2081 -5.13559 27.7748
rtibia 62.924
rfoot -37.2308 -22.0411
rtoes -4.80383
lfemur -66.8434 13.2149 -29.9329
ltibia 76.9706
lfoot -20.6674 9.54365
ltoes -15.1236
618
root 32.9021 14.6945 -11.8879 175.646 -49.7128 -177.072
lowerback 21.7331 -1.07574 6.63317
upperback 11.866 -1.90783 3.20698
thorax 0.851623 -1.48276 0.0569899
lowerneck 14.2873 1.78846 7.32616
upperneck 4.78738 3.00201 -7.84493
head -0.71015 1.59067 -4.07825
rclavicle 1.59028e-015 1.66979e-014
rhumerus -32.1357 11.6612 -86.8162
rradius 123.575
rwrist 16.4042
rhand 18.8319 -21.1518
rfingers 7.12502
rthumb 43.4454 -45.2384
lclavicle 1.59028e-015 1.66979e-014
lhumerus -38.1562 -2.24512 86.2949
lradius 130.254
lwrist 6.78347
lhand 7.20879 37.6822
lfingers 7.12502
lthumb 32.4744 64.7918
rfemur -23.9384 -5.30482 28.0428
rtibia 62.3231
rfoot -37.5497 -22.1333
rtoes -4.75408
lfemur -65.2879 13.5065 -30.0364
ltibia 74.2156
lfoot -20.8138 9.72658
ltoes -15.3865
619
root 32.817 14.7083 -11.9958 175.092 -49.9078 -176.751
lowerback 21.5304 -1.05335 6.61288
upperback 11.8242 -1.8793 3.25417
thorax 0.907024 -1.4636 0.106773
lowerneck 14.2722 1.76829 7.32077
upperneck 4.89601 2.97272 -7.79174
head -0.674158 1.57231 -4.05451
rclavicle -1.31198e-014 -1.35174e-014
rhumerus -32.2069 11.563 -86.8281
rradius 123.51
rwrist 16.3355
rhand 18.9159 -21.1668
rfingers 7.12502
rthumb 43.5238 -45.225
lclavicle -1.31198e-014 -1.35174e-014
lhumerus -38.2752 -2.27626 86.3225
lradius 130.285
lwrist 6.96657
lhand 7.05733 37.6782
lfingers 7.12502
lthumb 32.3303 64.8174
rfemur -22.6597 -5.46434 28.3033
rtibia 61.6852
rfoot -37.8662 -22.2175
rtoes -4.67749
lfemur -63.7273 13.8574 -30.1376
ltibia 71.4503
lfoot -20.9403 9.91477
ltoes -15.7679
620
root 32.7303 14.7225 -12.1048 174.567 -50.0807 -176.428
lowerback 21.3037 -1.02419 6.55777
upperback 11.768 -1.84594 3.30918
thorax 0.95888 -1.44284 0.182999
lowerneck 14.2582 1.75963 7.29573
upperneck 4.97648 2.95614 -7.72943
head -0.647023 1.56044 -4.02468
rclavicle 5.48646e-014 1.35174e-014
rhumerus -32.2809 11.4801 -86.8329
rradius 123.448
rwrist 16.2701
rhand 18.9853 -21.1736
rfingers 7.12502
rthumb 43.5887 -45.2082
lclavicle 5.48646e-014 1.35174e-014
lhumerus -38.4089 -2.26381 86.3416
lradius 130.33
lwrist 7.15015
lhand 6.8947 37.651
lfingers 7.12502
lthumb 32.1755 64.8216
rfemur -21.3961 -5.60347 28.5688
rtibia 61.0164
rfoot -38.1759 -22.2984
rtoes -4.59902
lfemur -62.196 14.2474 -30.217
ltibia 68.6929
lfoot -21.058 10.0748
ltoes -16.1284
621
root 32.6416 14.7379 -12.214 174.084 -50.2283 -176.108
lowerback 21.0477 -0.991141 6.46966
upperback 11.6953 -1.81077 3.37125
thorax 1.0073 -1.42167 0.28436
lowerneck 14.2528 1.76346 7.23679
upperneck 5.02535 2.9516 -7.65429
head -0.631436 1.55451 -3.98482
rclavicle -1.74931e-014 1.51076e-014
rhumerus -32.355 11.4214 -86.8304
rradius 123.389
rwrist 16.1969
rhand 19.0452 -21.1801
rfingers 7.12502
rthumb 43.6446 -45.1942
lclavicle -1.74931e-014 1.51076e-014
lhumerus -38.5612 -2.19821 86.3584
lradius 130.388
lwrist 7.3206
lhand 6.72599 37.6089
lfingers 7.12502
lthumb 32.0148 64.8118
rfemur -20.1593 -5.71993 28.8325
rtibia 60.3165
rfoot -38.458 -22.3828
rtoes -4.5572
lfemur -60.7027 14.6645 -30.2742
ltibia 65.9506
lfoot -21.1844 10.1907
ltoes -16.3885
622
root 32.5504 14.7543 -12.3227 173.642 -50.3474 -175.792
lowerback 20.7606 -0.955844 6.36914
upperback 11.6088 -1.77285 3.43224
thorax 1.05603 -1.39829 0.390324
lowerneck 14.25 1.77433 7.15538
upperneck 5.04926 2.95345 -7.57004
head -0.624465 1.55175 -3.93805
rclavicle 4.96962e-014 -6.67916e-014
rhumerus -32.4398 11.3775 -86.8322
rradius 123.339
rwrist 16.1179
rhand 19.0938 -21.1892
rfingers 7.12502
rthumb 43.69 -45.1867
lclavicle 4.96962e-014 -6.67916e-014
lhumerus -38.7255 -2.09539 86.3677
lradius 130.457
lwrist 7.47419
lhand 6.5619 37.5578
lfingers 7.12502
lthumb 31.8586 64.792
rfemur -18.9496 -5.81746 29.0881
rtibia 59.5875
rfoot -38.7027 -22.4694
rtoes -4.57576
lfemur -59.2493 15.0887 -30.3045
ltibia 63.2332
lfoot -21.3281 10.2837
ltoes -16.5333
623
root 32.4566 14.7715 -12.4301 173.232 -50.4366 -175.472
lowerback 20.4513 -0.92105 6.27525
upperback 11.509 -1.73235 3.48948
thorax 1.10166 -1.37209 0.487742
lowerneck 14.2454 1.78867 7.05793
upperneck 5.05611 2.95767 -7.48193
head -0.62291 1.55019 -3.88716
rclavicle -8.90555e-014 -3.18055e-015
rhumerus -32.535 11.3449 -86.8389
rradius 123.299
rwrist 16.0344
rhand 19.1329 -21.2018
rfingers 7.12502
rthumb 43.7265 -45.1859
lclavicle -8.90555e-014 -3.18055e-015
lhumerus -38.8976 -1.96291 86.3688
lradius 130.532
lwrist 7.60443
lhand 6.40728 37.5075
lfingers 7.12502
lthumb 31.7113 64.7709
rfemur -17.7666 -5.89761 29.3378
rtibia 58.8334
rfoot -38.9094 -22.5503
rtoes -4.63892
lfemur -57.8343 15.499 -30.2929
ltibia 60.5489
lfoot -21.4893 10.3681
ltoes -16.5302
624
root 32.3601 14.7897 -12.5356 172.848 -50.5012 -175.15
lowerback 20.1228 -0.886508 6.20797
upperback 11.4004 -1.68622 3.53344
thorax 1.14725 -1.34032 0.554817
lowerneck 14.2277 1.79654 6.97499
upperneck 5.05454 2.95546 -7.40288
head -0.622205 1.54599 -3.84202
rclavicle -4.77083e-015 4.77083e-015
rhumerus -32.6382 11.3021 -86.8612
rradius 123.265
rwrist 15.9471
rhand 19.1696 -21.2179
rfingers 7.12502
rthumb 43.7607 -45.1894
lclavicle -4.77083e-015 4.77083e-015
lhumerus -39.0623 -1.82725 86.3518
lradius 130.608
lwrist 7.71391
lhand 6.27902 37.4654
lfingers 7.12502
lthumb 31.5892 64.7529
rfemur -16.6071 -5.96877 29.5769
rtibia 58.0567
rfoot -39.0775 -22.6172
rtoes -4.74174
lfemur -56.4545 15.8788 -30.2344
ltibia 57.905
lfoot -21.6526 10.4603
ltoes -16.4238
